<svg height="147.3" width="600" xmlns="http://www.w3.org/2000/svg"><path d="m157.70000458 52.19999695h60.70000076v11.30000019h-23.89999962v63.70000076h-13.10000038v-63.70000076h-23.79999924zm58.09999847 20.70000076h11.19999981v10.5h.2c.40000001-1.5 1.10000002-2.9000001 2.0999999-4.30000019s2.20000005-2.70000005 3.70000005-3.79999995c1.39999998-1.20000005 3-2.0999999 4.80000019-2.79999995 1.70000005-.69999999 3.5-1.10000002 5.30000019-1.10000002 1.39999998 0 2.4000001.1 2.9000001.1.5.1 1.10000002.2 1.60000002.2v11.5c-.80000001-.2-1.70000005-.30000001-2.5999999-.40000001s-1.70000005-.2-2.5999999-.2c-2 0-3.9000001.40000001-5.69999981 1.20000005s-3.29999995 2-4.69999981 3.5c-1.29999995 1.60000002-2.4000001 3.5-3.20000005 5.80000019s-1.20000005 5-1.20000005 8v25.79999924h-12zm86.80000305 54.29999924h-11.80000019v-7.5999999h-.2c-1.5 2.79999995-3.70000005 4.9000001-6.5999999 6.5999999s-5.9000001 2.5-8.89999962 2.5c-7.0999999 0-12.30000019-1.70000005-15.5-5.30000019-3.20000005-3.5-4.80000019-8.89999962-4.80000019-16v-34.5h12v33.29999924c0 4.80000019.90000004 8.19999981 2.79999995 10.10000038 1.79999995 2 4.4000001 3 7.69999981 3 2.5 0 4.5999999-.40000001 6.30000019-1.20000005s3.0999999-1.79999995 4.0999999-3.0999999c1.10000002-1.29999995 1.79999995-2.9000001 2.29999995-4.69999981s.69999999-3.79999995.69999999-5.9000001v-31.5h12v54.29999924zm20.39999962-17.39999962c.40000001 3.5 1.70000005 5.9000001 4 7.4000001 2.29999995 1.39999998 5.0999999 2.0999999 8.30000019 2.0999999 1.10000002 0 2.4000001-.1 3.79999995-.30000001s2.79999995-.5 4-1c1.29999995-.5 2.29999995-1.20000005 3.0999999-2.20000005s1.20000005-2.20000005 1.10000002-3.70000005-.60000002-2.79999995-1.70000005-3.79999995-2.4000001-1.70000005-4-2.4000001c-1.60000002-.60000002-3.5-1.10000002-5.5999999-1.5s-4.19999981-.90000004-6.4000001-1.39999998-4.4000001-1.10000002-6.5-1.79999995-3.9000001-1.60000002-5.5999999-2.9000001c-1.60000002-1.20000005-3-2.70000005-3.9000001-4.5999999-1-1.9000001-1.5-4.0999999-1.5-6.9000001 0-3 .69999999-5.4000001 2.20000005-7.4000001 1.39999998-2 3.29999995-3.5999999 5.5-4.80000019s4.69999981-2.0999999 7.4000001-2.5999999 5.30000019-.69999999 7.69999981-.69999999c2.79999995 0 5.5.30000001 8 .90000004s4.9000001 1.5 6.9000001 2.9000001c2.0999999 1.29999995 3.79999995 3.0999999 5.0999999 5.19999981 1.39999998 2.0999999 2.20000005 4.69999981 2.5999999 7.69999981h-12.5c-.60000002-2.9000001-1.9000001-4.80000019-3.9000001-5.80000019-2.0999999-1-4.4000001-1.5-7.0999999-1.5-.80000001 0-1.9000001.1-3 .2-1.20000005.2-2.20000005.40000001-3.29999995.80000001-1 .40000001-1.9000001 1-2.5999999 1.70000005s-1.10000002 1.70000005-1.10000002 2.9000001c0 1.5.5 2.5999999 1.5 3.5s2.29999995 1.60000002 4 2.29999995c1.60000002.60000002 3.5 1.10000002 5.5999999 1.5s4.30000019.90000004 6.5 1.39999998 4.30000019 1.10000002 6.4000001 1.79999995 4 1.60000002 5.5999999 2.9000001c1.60000002 1.20000005 3 2.70000005 4 4.5s1.5 4.0999999 1.5 6.69999981c0 3.20000005-.69999999 5.9000001-2.20000005 8.19999981-1.5 2.20000005-3.4000001 4.0999999-5.69999981 5.5s-5 2.4000001-7.80000019 3.0999999c-2.9000001.60000002-5.69999981 1-8.5 1-3.4000001 0-6.5999999-.40000001-9.5-1.20000005s-5.5-2-7.5999999-3.5c-2.0999999-1.60000002-3.79999995-3.5-5-5.9000001-1.20000005-2.29999995-1.9000001-5.0999999-2-8.39999962h12.10000038v.1zm39.5-36.90000153h9.10000038v-16.39999962h12v16.29999924h10.80000019v8.89999962h-10.80000019v29c0 1.29999995.1 2.29999995.2 3.29999995.1.90000004.40000001 1.70000005.69999999 2.29999995.40000001.60000002 1 1.10000002 1.70000005 1.39999998.80000001.30000001 1.79999995.5 3.20000005.5.80000001 0 1.70000005 0 2.5-.1s1.70000005-.2 2.5-.40000001v9.30000019c-1.29999995.2-2.5999999.30000001-3.9000001.40000001-1.29999995.2-2.5.2-3.9000001.2-3.20000005 0-5.69999981-.30000001-7.5999999-.90000004s-3.4000001-1.5-4.5-2.5999999c-1.10000002-1.20000005-1.79999995-2.5999999-2.20000005-4.30000019s-.60000002-3.79999995-.69999999-6v-32h-9.10000038v-9.10000038zm40.29999924 0h11.30000019v7.4000001h.2c1.70000005-3.20000005 4-5.4000001 7-6.80000019s6.19999981-2.0999999 9.80000019-2.0999999c4.30000019 0 8 .69999999 11.19999981 2.29999995 3.20000005 1.5 5.80000019 3.5 7.9000001 6.19999981 2.0999999 2.5999999 3.70000005 5.69999981 4.69999981 9.19999981s1.60000002 7.30000019 1.60000002 11.19999981c0 3.70000005-.5 7.19999981-1.39999998 10.60000038-1 3.4000001-2.4000001 6.5-4.30000019 9.10000038s-4.30000019 4.69999981-7.30000019 6.30000019-6.4000001 2.4000001-10.39999962 2.4000001c-1.70000005 0-3.5-.2-5.19999981-.5s-3.4000001-.80000001-5-1.5-3.0999999-1.60000002-4.4000001-2.70000005c-1.39999998-1.10000002-2.5-2.4000001-3.4000001-3.79999995h-.2v27.10000038h-12v-74.40000153zm41.90000153 27.20000076c0-2.4000001-.30000001-4.80000019-1-7.0999999-.60000002-2.29999995-1.60000002-4.30000019-2.9000001-6.0999999s-2.9000001-3.20000005-4.69999981-4.30000019c-1.9000001-1.10000002-4.0999999-1.60000002-6.5-1.60000002-5 0-8.80000019 1.70000005-11.39999962 5.19999981-2.5 3.5-3.79999995 8.19999981-3.79999995 14 0 2.79999995.30000001 5.30000019 1 7.5999999s1.60000002 4.30000019 3 6c1.29999995 1.70000005 2.9000001 3 4.80000019 4s4 1.5 6.5 1.5c2.79999995 0 5-.60000002 6.9000001-1.70000005s3.4000001-2.5999999 4.69999981-4.30000019c1.20000005-1.79999995 2.0999999-3.79999995 2.5999999-6.0999999.5-2.4000001.80000001-4.69999981.80000001-7.0999999zm21.10000038-47.90000153h12v11.30000019h-12zm0 20.70000076h12v54.29999924h-12zm22.70000076-20.70000076h12v75h-12zm48.59999847 76.5c-4.30000019 0-8.19999981-.69999999-11.60000038-2.20000005s-6.19999981-3.4000001-8.60000038-5.9000001c-2.29999995-2.5-4.0999999-5.5999999-5.30000019-9.10000038s-1.9000001-7.4000001-1.9000001-11.5.60000002-7.9000001 1.9000001-11.39999962c1.20000005-3.5 3-6.5 5.30000019-9.10000038 2.29999995-2.5 5.19999981-4.5 8.60000038-5.9000001s7.30000019-2.20000005 11.60000038-2.20000005 8.19999981.69999999 11.60000038 2.20000005c3.4000001 1.39999998 6.19999981 3.4000001 8.60000038 5.9000001 2.29999995 2.5 4.0999999 5.5999999 5.30000019 9.10000038s1.9000001 7.30000019 1.9000001 11.39999962c0 4.19999981-.60000002 8-1.9000001 11.5s-3 6.5-5.30000019 9.10000038c-2.29999995 2.5-5.19999981 4.5-8.60000038 5.9000001s-7.19999981 2.20000005-11.60000038 2.20000005zm0-9.5c2.5999999 0 5-.60000002 6.9000001-1.70000005 2-1.10000002 3.5-2.5999999 4.80000019-4.4000001s2.20000005-3.9000001 2.79999995-6.0999999c.60000002-2.29999995.90000004-4.5999999.90000004-7 0-2.29999995-.30000001-4.5999999-.90000004-6.9000001s-1.5-4.30000019-2.79999995-6.0999999-2.9000001-3.20000005-4.80000019-4.30000019c-2-1.10000002-4.30000019-1.70000005-6.9000001-1.70000005s-5 .60000002-6.9000001 1.70000005c-2 1.10000002-3.5 2.5999999-4.80000019 4.30000019-1.29999995 1.79999995-2.20000005 3.79999995-2.79999995 6.0999999s-.90000004 4.5999999-.90000004 6.9000001c0 2.4000001.30000001 4.69999981.90000004 7s1.5 4.30000019 2.79999995 6.0999999 2.9000001 3.29999995 4.80000019 4.4000001c2 1.20000005 4.30000019 1.70000005 6.9000001 1.70000005zm31-46.29999924h9.10000038v-16.39999962h12v16.29999924h10.80000019v8.89999962h-10.80000019v29c0 1.29999995.1 2.29999995.2 3.29999995.1.90000004.40000001 1.70000005.69999999 2.29999995.40000001.60000002 1 1.10000002 1.70000005 1.39999998.80000001.30000001 1.79999995.5 3.20000005.5.80000001 0 1.70000005 0 2.5-.1s1.70000005-.2 2.5-.40000001v9.30000019c-1.29999995.2-2.5999999.30000001-3.9000001.40000001-1.29999995.2-2.5.2-3.9000001.2-3.20000005 0-5.69999981-.30000001-7.5999999-.90000004s-3.4000001-1.5-4.5-2.5999999c-1.10000002-1.20000005-1.79999995-2.5999999-2.20000005-4.30000019s-.60000002-3.79999995-.69999999-6v-32h-9.10000038v-9.10000038z" fill="#fff"/><path d="m143.70000458 52.19999695h-54.90000153l-16.89999962-52.20000076-17 52.20000076-54.90000153-.1 44.40000153 32.29999924-17 52.20000076 44.40000153-32.29999924 44.40000153 32.29999924-16.89999962-52.20000076z" fill="#fff"/><path d="m103.1000061 96.19999695-3.79999995-11.80000019-27.39999962 19.89999962z" fill="#212832"/></svg>